#!OML:ASF H:\LiuWeirdWalks\Patient Classification 1\Patient 1\Session 1\male.ASF
:FULLY-SPECIFIED
:DEGREES
501
root 2.15404 17.8095 36.8603 2.31555 2.00443 6.87653
lowerback 0.843619 0.641769 -7.5712
upperback -2.66525 0.612154 -1.93701
thorax -3.30022 0.474348 2.21049
lowerneck -15.3909 -5.15718 -2.7588
upperneck 23.7547 -6.16545 -1.43653
head 10.158 -3.26427 -0.859662
rclavicle -1.21134e-015 -1.41634e-014
rhumerus -43.8792 -18.6125 -66.7518
rradius 30.7527
rwrist -7.16685
rhand -12.2773 0.323141
rfingers 7.12502
rthumb 13.7898 -29.1998
lclavicle -1.21134e-015 -1.41634e-014
lhumerus -40.2879 8.58238 78.3303
lradius 18.7314
lwrist -4.80167
lhand -5.33757 -1.93423
lfingers 7.12502
lthumb 20.469 27.0068
rfemur -19.4385 -4.11349 12.5216
rtibia 41.7466
rfoot -16.6254 -17.2633
rtoes -0.72071
lfemur -12.7323 1.24972 -30.0393
ltibia 28.4218
lfoot -10.57 8.44537
ltoes -7.24238
502
root 2.14708 17.8188 36.8993 2.516 2.18425 6.46561
lowerback 0.542891 0.698538 -7.19957
upperback -2.72803 0.724981 -1.83811
thorax -3.19975 0.520861 2.10513
lowerneck -15.2771 -5.24765 -2.83327
upperneck 23.745 -6.28058 -1.4206
head 10.137 -3.32229 -0.853516
rclavicle -5.64362e-015 -1.09332e-015
rhumerus -43.9413 -18.8126 -66.6121
rradius 29.8607
rwrist -6.32995
rhand -11.794 0.221323
rfingers 7.12502
rthumb 14.2555 -29.2694
lclavicle -5.64362e-015 -1.09332e-015
lhumerus -40.609 8.1709 78.6765
lradius 19.2854
lwrist -3.66246
lhand -5.48472 -2.01472
lfingers 7.12502
lthumb 20.3276 26.9415
rfemur -19.3056 -4.2418 13.027
rtibia 41.4101
rfoot -16.6498 -17.3277
rtoes -0.765119
lfemur -12.8935 0.885394 -29.587
ltibia 28.6087
lfoot -10.6764 8.7608
ltoes -7.22824
503
root 2.14155 17.8282 36.9373 2.79383 2.35222 6.04826
lowerback 0.163154 0.758556 -6.79856
upperback -2.82563 0.845261 -1.7419
thorax -3.08996 0.571017 1.98167
lowerneck -15.1286 -5.33833 -2.91631
upperneck 23.7465 -6.40092 -1.38327
head 10.1149 -3.38114 -0.838282
rclavicle -1.667e-014 -2.93207e-015
rhumerus -44.0316 -19.0551 -66.415
rradius 28.97
rwrist -5.37999
rhand -11.2158 0.1691
rfingers 7.12502
rthumb 14.8126 -29.2815
lclavicle -1.667e-014 -2.93207e-015
lhumerus -40.9355 7.72979 79.0353
lradius 19.8569
lwrist -2.58576
lhand -5.5852 -2.05181
lfingers 7.12502
lthumb 20.2311 26.9146
rfemur -19.273 -4.44073 13.5372
rtibia 41.073
rfoot -16.6568 -17.3146
rtoes -0.847796
lfemur -13.1567 0.551227 -29.1247
ltibia 28.8101
lfoot -10.7962 9.02325
ltoes -7.22624
504
root 2.13526 17.8377 36.9741 3.09941 2.53429 5.63517
lowerback -0.227296 0.823195 -6.39987
upperback -2.94903 0.96784 -1.65019
thorax -3.00011 0.623558 1.85543
lowerneck -14.9642 -5.43899 -3.02881
upperneck 23.781 -6.54003 -1.30298
head 10.1047 -3.4463 -0.805985
rclavicle -2.74571e-014 9.44227e-015
rhumerus -44.1778 -19.3521 -66.1546
rradius 28.1162
rwrist -4.33694
rhand -10.5359 0.13914
rfingers 7.12502
rthumb 15.4676 -29.2621
lclavicle -2.74571e-014 9.44227e-015
lhumerus -41.2691 7.22986 79.4099
lradius 20.4347
lwrist -1.58414
lhand -5.63808 -2.07384
lfingers 7.12502
lthumb 20.1802 26.898
rfemur -19.2809 -4.68617 14.0442
rtibia 40.7346
rfoot -16.6485 -17.259
rtoes -0.95821
lfemur -13.466 0.239725 -28.6534
ltibia 29.0219
lfoot -10.9308 9.2148
ltoes -7.21328
505
root 2.12687 17.8471 37.0104 3.41237 2.73885 5.21263
lowerback -0.612511 0.883432 -6.01604
upperback -3.09629 1.07974 -1.5528
thorax -2.93664 0.672407 1.74401
lowerneck -14.761 -5.53414 -3.13138
upperneck 23.8176 -6.67847 -1.21316
head 10.0881 -3.50946 -0.770571
rclavicle -5.03795e-015 3.37934e-015
rhumerus -44.3676 -19.6354 -65.888
rradius 27.3205
rwrist -3.36135
rhand -9.86541 0.0279478
rfingers 7.12502
rthumb 16.1132 -29.3222
lclavicle -5.03795e-015 3.37934e-015
lhumerus -41.6233 6.71042 79.7737
lradius 21.0065
lwrist -0.700684
lhand -5.66401 -2.13254
lfingers 7.12502
lthumb 20.1553 26.8419
rfemur -19.3028 -4.95106 14.5663
rtibia 40.3938
rfoot -16.6291 -17.183
rtoes -1.09638
lfemur -13.7954 -0.0413983 -28.1545
ltibia 29.2394
lfoot -11.0757 9.32937
ltoes -7.22257
506
root 2.11591 17.856 37.0463 3.70714 2.9664 4.78974
lowerback -0.957505 0.938074 -5.67095
upperback -3.24419 1.1782 -1.44404
thorax -2.89597 0.716165 1.6661
lowerneck -14.5985 -5.6265 -3.23121
upperneck 23.8776 -6.81481 -1.1156
head 10.0881 -3.57033 -0.73444
rclavicle -1.09953e-015 -5.56597e-015
rhumerus -44.5684 -19.9186 -65.6163
rradius 26.5934
rwrist -2.42673
rhand -9.19695 -0.133369
rfingers 7.12502
rthumb 16.7568 -29.4302
lclavicle -1.09953e-015 -5.56597e-015
lhumerus -41.9551 6.21536 80.1155
lradius 21.526
lwrist -0.0873883
lhand -5.73303 -2.35811
lfingers 7.12502
lthumb 20.089 26.6233
rfemur -19.3094 -5.19343 15.0933
rtibia 40.0539
rfoot -16.61 -17.1203
rtoes -1.24108
lfemur -14.1137 -0.292798 -27.6378
ltibia 29.4555
lfoot -11.2258 9.37805
ltoes -7.25496
507
root 2.10167 17.8641 37.0818 3.95132 3.22832 4.36341
lowerback -1.22708 0.986578 -5.36371
upperback -3.37543 1.26165 -1.32437
thorax -2.88019 0.753697 1.62006
lowerneck -14.5002 -5.72267 -3.32598
upperneck 23.9404 -6.95609 -1.01641
head 10.1016 -3.63249 -0.701404
rclavicle -1.50828e-014 -2.16675e-014
rhumerus -44.7599 -20.2064 -65.3571
rradius 25.9311
rwrist -1.56858
rhand -8.57999 -0.329997
rfingers 7.12502
rthumb 17.3507 -29.5755
lclavicle -1.50828e-014 -2.16675e-014
lhumerus -42.2374 5.72117 80.4528
lradius 21.993
lwrist 0.352717
lhand -5.84286 -2.70594
lfingers 7.12502
lthumb 19.9834 26.2865
rfemur -19.2609 -5.40375 15.6296
rtibia 39.7167
rfoot -16.6007 -17.0927
rtoes -1.37971
lfemur -14.3855 -0.508889 -27.0992
ltibia 29.6696
lfoot -11.3882 9.35565
ltoes -7.29315
508
root 2.08568 17.8714 37.1158 4.16015 3.49678 3.94659
lowerback -1.43011 1.0289 -5.09578
upperback -3.4864 1.33177 -1.19599
thorax -2.88098 0.785598 1.60434
lowerneck -14.501 -5.81552 -3.41507
upperneck 24.0185 -7.09022 -0.918609
head 10.1394 -3.69032 -0.672584
rclavicle -2.01332e-014 -3.77691e-015
rhumerus -44.9108 -20.4852 -65.1239
rradius 25.326
rwrist -0.757632
rhand -8.02158 -0.511776
rfingers 7.12502
rthumb 17.8881 -29.7091
lclavicle -2.01332e-014 -3.77691e-015
lhumerus -42.4512 5.23573 80.7969
lradius 22.4105
lwrist 0.695401
lhand -6.02051 -3.11575
lfingers 7.12502
lthumb 19.8126 25.8944
rfemur -19.1856 -5.57025 16.1599
rtibia 39.3897
rfoot -16.5915 -17.1008
rtoes -1.50203
lfemur -14.6268 -0.702991 -26.5613
ltibia 29.8779
lfoot -11.55 9.31015
ltoes -7.33517
509
root 2.07013 17.8776 37.1471 4.34219 3.74772 3.54003
lowerback -1.56806 1.08268 -4.81366
upperback -3.58285 1.41248 -1.07883
thorax -2.90305 0.822264 1.568
lowerneck -14.5622 -5.91155 -3.49032
upperneck 24.0764 -7.22868 -0.824844
head 10.181 -3.74893 -0.649692
rclavicle 2.67117e-015 -1.10325e-014
rhumerus -45.0347 -20.7861 -64.909
rradius 24.7728
rwrist -0.0109551
rhand -7.54468 -0.691006
rfingers 7.12502
rthumb 18.3469 -29.8458
lclavicle 2.67117e-015 -1.10325e-014
lhumerus -42.5927 4.72433 81.1546
lradius 22.7886
lwrist 1.01618
lhand -6.26167 -3.54529
lfingers 7.12502
lthumb 19.5808 25.4887
rfemur -19.1027 -5.69179 16.6791
rtibia 39.0783
rfoot -16.5824 -17.1317
rtoes -1.60984
lfemur -14.8509 -0.887221 -26.0353
ltibia 30.0847
lfoot -11.7076 9.28566
ltoes -7.39795
510
root 2.05533 17.8827 37.1762 4.5024 3.97725 3.15758
lowerback -1.67138 1.13653 -4.54449
upperback -3.67237 1.49078 -0.968101
thorax -2.93717 0.857902 1.5317
lowerneck -14.6116 -6.00274 -3.57106
upperneck 24.1054 -7.36294 -0.71662
head 10.211 -3.80446 -0.619369
rclavicle 1.51573e-015 6.16232e-015
rhumerus -45.136 -21.0671 -64.7213
rradius 24.266
rwrist 0.672232
rhand -7.16173 -0.876175
rfingers 7.12502
rthumb 18.7153 -29.9959
lclavicle 1.51573e-015 6.16232e-015
lhumerus -42.7027 4.21625 81.511
lradius 23.1616
lwrist 1.37647
lhand -6.51495 -3.87953
lfingers 7.12502
lthumb 19.3373 25.179
rfemur -19.0184 -5.77301 17.1723
rtibia 38.7895
rfoot -16.5748 -17.1882
rtoes -1.68988
lfemur -15.0577 -1.07699 -25.5393
ltibia 30.2888
lfoot -11.8561 9.30544
ltoes -7.47179
